<?xml version="1.0" standalone="no"?><!DOCTYPE svg PUBLIC "-//W3C//DTD SVG 1.1//EN" "http://www.w3.org/Graphics/SVG/1.1/DTD/svg11.dtd"><svg t="1761312086363" class="icon" viewBox="0 0 1024 1024" version="1.1" xmlns="http://www.w3.org/2000/svg" p-id="3413" xmlns:xlink="http://www.w3.org/1999/xlink" width="200" height="200"><path d="M115.5 226.8c20.6 19.1 41.3 38.2 61.9 57.3 32.7 30.3 65.4 60.5 98.2 90.8 30 27.8 60.1 55.5 90.1 83.3 12.2 11.3 24.5 22.6 36.7 33.9 6.2 3.6 12.5 6.9 19 9.8 17.8 7.1 36.3 11.8 55.2 14.7 22.8 2.7 45.9 2.7 68.7 0 18.9-2.9 37.5-7.6 55.2-14.7 6.5-2.9 12.8-6.1 18.9-9.7 13.9-13.2 28.3-26 42.4-39 29.4-27.1 58.7-54.1 88.1-81.2 31-28.6 62-57.1 93-85.7 19.5-18 39-36 58.5-53.9 8.3-7.7 16.5-15.4 24.7-23.2-13.9-10.1-30.9-16.1-49.4-16.1h-728c-19 0-36.5 6.3-50.6 17 5.8 5.7 11.5 11.3 17.4 16.7zM830.2 379.6C794 413 757.7 446.4 721.5 479.8l-15.6 14.4 21.9 20.4c13.1 12.2 26.3 24.5 39.4 36.7 14.9 13.9 29.9 27.8 44.8 41.8 15.3 14.2 30.5 28.5 45.8 42.7 13.9 13 27.9 26 41.8 39 11.1 10.4 22.2 20.7 33.4 31.1 6.7 6.2 13.3 12.4 20 18.6 2.7 2.6 5.4 5.2 8 7.8V277.1c0-5.7-0.6-11.3-1.7-16.7-11.6 10.9-23.3 21.8-35 32.6-31.4 28.8-62.8 57.7-94.1 86.6zM136.8 663.4c14.4-13.4 28.7-26.8 43.1-40.2 15.2-14.1 30.3-28.3 45.5-42.4 14.4-13.5 28.9-26.9 43.3-40.4 12.2-11.4 24.4-22.8 36.6-34.1 4-3.7 8-7.4 12-11.2-21.4-19.7-42.7-39.5-64.1-59.2-36.6-33.8-73.1-67.6-109.7-101.4-23.6-21.9-47.3-43.7-70.9-65.6-2.2-2-4.4-4.1-6.5-6.2-0.8 4.7-1.3 9.5-1.3 14.4v453.4c0.9-0.8 1.7-1.6 2.6-2.4l8.7-8.1c8.2-7.6 16.3-15.2 24.5-22.8 12.1-11.4 24.2-22.6 36.2-33.8zM915.4 771.6c-2.7-2.7-5.6-5.3-8.4-7.9-7.9-7.4-15.8-14.8-23.7-22.1l-35.7-33.3c-14.4-13.5-28.9-26.9-43.3-40.4-15.3-14.3-30.6-28.5-45.9-42.8-14.7-13.7-29.4-27.4-44-41.1-12.4-11.6-24.8-23.1-37.2-34.7-5.2-4.8-10.4-9.7-15.5-14.5-0.5 0.4-1 0.9-1.4 1.3-7 6.5-15.7 11-24.3 15.1-18.4 8.8-37.7 15.7-57.6 20-42.2 9.1-85.6 9.4-128 1.4-20.3-3.8-39.6-10.3-58.4-18.6-10.4-4.6-21.2-9.7-29.6-17.4-0.3-0.3-0.6-0.5-0.8-0.8-7.3 6.8-14.5 13.5-21.8 20.3-12.8 12-25.7 23.9-38.5 35.9-14.8 13.8-29.5 27.5-44.3 41.3l-45.3 42.3c-13.9 13-27.9 26-41.8 39-11.3 10.5-22.5 21-33.8 31.5-7 6.6-14.1 13.1-21.1 19.7-3.3 3.1-6.7 6.2-10 9.4-8.1 7.6-16.2 15.2-24.3 22.7 15.3 21.3 40.2 35.2 68.3 35.2h728c27.2 0 51.5-13 66.8-33.2-9.5-9.4-18.9-18.9-28.4-28.3z" p-id="3414" fill="#edc96d"></path></svg>